<?xml version="1.0" standalone="no"?>
<!DOCTYPE svg PUBLIC "-//W3C//DTD SVG 20010904//EN"
 "http://www.w3.org/TR/2001/REC-SVG-20010904/DTD/svg10.dtd">
<svg version="1.0" xmlns="http://www.w3.org/2000/svg"
 width="1884.000000pt" height="1884.000000pt" viewBox="0 0 1884.000000 1884.000000"
 preserveAspectRatio="xMidYMid meet">
<metadata>
Created by potrace 1.14, written by Peter Selinger 2001-2017
</metadata>
<g transform="translate(0.000000,1884.000000) scale(0.100000,-0.100000)"
fill="#000000" stroke="none">
<path d="M9019 18836 c-2 -2 -71 -7 -152 -11 -81 -3 -158 -8 -170 -10 -12 -2
-62 -6 -112 -10 -49 -4 -97 -8 -105 -10 -8 -1 -51 -6 -95 -10 -44 -4 -87 -8
-95 -10 -8 -1 -42 -6 -75 -9 -247 -28 -695 -110 -1009 -186 -522 -125 -1143
-335 -1584 -536 -29 -13 -54 -24 -57 -24 -7 0 -233 -109 -380 -182 -1062 -534
-2019 -1272 -2824 -2178 -46 -52 -96 -109 -112 -126 -15 -18 -84 -102 -154
-189 -613 -760 -1082 -1563 -1439 -2461 -300 -756 -518 -1633 -600 -2414 -44
-415 -51 -561 -51 -1045 0 -353 6 -561 21 -745 17 -220 85 -767 99 -808 2 -7
7 -34 11 -60 3 -26 23 -136 45 -245 161 -807 431 -1599 794 -2328 84 -169 114
-226 193 -369 197 -361 462 -769 731 -1125 72 -96 252 -323 297 -375 12 -14
55 -63 95 -110 40 -47 78 -90 83 -96 6 -6 49 -53 96 -105 108 -120 455 -467
585 -585 84 -77 200 -179 316 -279 14 -13 84 -69 155 -125 71 -56 138 -109
149 -119 108 -88 441 -323 675 -474 496 -320 1122 -636 1705 -859 568 -218
1224 -397 1800 -491 96 -16 165 -27 200 -31 22 -3 90 -12 152 -21 61 -8 142
-17 180 -21 37 -3 79 -7 92 -9 13 -3 63 -7 110 -11 47 -3 96 -7 109 -9 169
-26 1280 -26 1443 0 13 2 67 6 119 10 52 4 102 8 110 10 8 1 47 6 85 9 117 12
423 55 545 77 63 11 129 22 145 25 125 20 454 93 650 144 1203 311 2331 862
3345 1633 80 61 147 113 150 116 3 4 39 33 80 66 342 273 800 714 1131 1090
456 517 866 1106 1204 1726 66 119 214 413 255 504 12 28 36 79 53 115 162
352 339 834 462 1260 108 370 219 883 265 1217 6 46 13 97 15 115 5 35 32 257
40 323 2 22 7 76 11 120 3 44 7 96 9 115 28 279 28 1135 0 1454 -11 115 -16
173 -20 211 -21 191 -27 243 -30 265 -2 14 -9 63 -15 110 -38 289 -127 735
-211 1057 -386 1479 -1127 2842 -2163 3978 -100 110 -438 451 -556 560 -331
308 -771 655 -1170 922 -142 95 -523 333 -534 333 -2 0 -41 22 -87 48 -603
347 -1461 700 -2109 869 -341 88 -444 113 -645 152 -294 58 -690 117 -915 136
-41 4 -86 8 -100 10 -14 2 -72 7 -130 10 -58 4 -121 9 -140 12 -44 5 -965 14
-971 9z"/>
</g>
</svg>
